#N canvas 0 19 390 478 12;
#X obj 132 177 until;
#X msg 132 204 1;
#X msg 192 123 0;
#X obj 132 320 sel 0;
#X msg 132 149 \$1;
#X obj 132 121 + 1;
#X obj 132 292 -;
#X obj 132 259 swap;
#X obj 132 232 +;
#X obj 192 149 float;
#X obj 132 94 t f f b b;
#X obj 160 120 + 1;
#X obj 132 346 bang;
#X obj 167 346 bang;
#X obj 121 385 outlet;
#X obj 181 385 outlet;
#X obj 132 66 inlet;
#X text 184 64 loop n times;
#X text 232 387 action bang;
#X text 49 386 exit bang;
#X connect 0 0 1 0;
#X connect 1 0 8 0;
#X connect 2 0 9 0;
#X connect 3 0 12 0;
#X connect 3 1 13 0;
#X connect 4 0 0 0;
#X connect 5 0 4 0;
#X connect 6 0 3 0;
#X connect 7 0 6 0;
#X connect 7 1 6 1;
#X connect 8 0 9 0;
#X connect 8 0 7 0;
#X connect 9 0 8 1;
#X connect 10 0 5 0;
#X connect 10 1 11 0;
#X connect 10 3 2 0;
#X connect 11 0 7 1;
#X connect 12 0 14 0;
#X connect 13 0 15 0;
#X connect 16 0 10 0;
