#N canvas 0 21 749 711 12;
#X floatatom 101 72 6 0 0 0 - - - 0;
#X obj 101 443 *~;
#X obj 224 369 line~;
#X floatatom 224 124 6 0 0 0 - - - 0;
#X obj 101 128 exp;
#X floatatom 101 154 6 0 0 0 - - - 0;
#X obj 101 244 /;
#X obj 149 181 * 0.001;
#X obj 287 433 line~;
#X floatatom 287 360 0 0 0 0 - - - 0;
#X obj 287 334 r delay;
#X obj 101 480 +~;
#X obj 45 495 cos~;
#X obj 45 522 *~;
#X obj 89 571 +~;
#X obj 165 369 wrap~;
#X obj 241 428 *~;
#X obj 269 488 +~;
#X obj 183 505 cos~;
#X obj 183 532 *~;
#X obj 149 207 t b f;
#X floatatom 101 270 6 0 0 0 - - - 0;
#X obj 165 342 +~ 0.5;
#X obj 45 443 -~ 0.5;
#X obj 45 469 *~ 0.5;
#X obj 183 428 -~ 0.5;
#X obj 183 477 *~ 0.5;
#X obj 101 181 - 1;
#X obj 101 102 * 0.05776;
#X obj 101 207 * -1;
#X obj 101 301 phasor~;
#X obj 287 384 max 1.5;
#X obj 224 151 max 1;
#X msg 224 342 \$1 200;
#X msg 287 408 \$1 200;
#X obj 374 187 inlet~;
#X obj 99 605 outlet~;
#X obj 100 506 vd~ del\$0;
#X obj 267 516 vd~ del\$0;
#X obj 373 245 delwrite~ del\$0 5000;
#X msg 252 87 200;
#X obj 230 51 loadbang;
#X msg 105 42 7;
#X obj 462 186 inlet;
#X msg 304 263 10;
#X connect 0 0 28 0;
#X connect 1 0 11 0;
#X connect 2 0 1 1;
#X connect 2 0 16 1;
#X connect 3 0 32 0;
#X connect 4 0 5 0;
#X connect 5 0 27 0;
#X connect 6 0 21 0;
#X connect 7 0 20 0;
#X connect 8 0 11 1;
#X connect 8 0 17 1;
#X connect 9 0 31 0;
#X connect 10 0 9 0;
#X connect 11 0 37 0;
#X connect 12 0 13 0;
#X connect 13 0 14 0;
#X connect 14 0 36 0;
#X connect 15 0 16 0;
#X connect 15 0 25 0;
#X connect 16 0 17 0;
#X connect 17 0 38 0;
#X connect 18 0 19 0;
#X connect 19 0 14 1;
#X connect 20 0 6 0;
#X connect 20 1 6 1;
#X connect 21 0 30 0;
#X connect 22 0 15 0;
#X connect 23 0 24 0;
#X connect 24 0 12 0;
#X connect 25 0 26 0;
#X connect 26 0 18 0;
#X connect 27 0 29 0;
#X connect 28 0 4 0;
#X connect 29 0 6 0;
#X connect 30 0 1 0;
#X connect 30 0 23 0;
#X connect 30 0 22 0;
#X connect 31 0 34 0;
#X connect 32 0 7 0;
#X connect 32 0 33 0;
#X connect 33 0 2 0;
#X connect 34 0 8 0;
#X connect 35 0 39 0;
#X connect 37 0 13 1;
#X connect 38 0 19 1;
#X connect 40 0 3 0;
#X connect 41 0 40 0;
#X connect 41 0 42 0;
#X connect 41 0 44 0;
#X connect 42 0 0 0;
#X connect 43 0 0 0;
#X connect 44 0 9 0;
