#N canvas 0 19 749 717 12;
#X obj 52 289 expr~ if($v1 > 1 \, 0 \, $v1);
#X obj 234 290 expr~ if($v1 > 1 \, 0 \, $v1);
#X obj 90 86 *~ -1;
#X obj 91 113 +~ 1;
#X obj 52 320 +~;
#X obj 119 159 sig~ 1;
#X obj 71 217 /~;
#X obj 131 216 /~;
#X obj 203 133 *~ -1;
#X obj 203 161 +~ 1;
#X obj 204 105 +~;
#X obj 53 258 *~;
#X obj 94 259 *~;
#X obj 85 41 inlet~;
#X obj 206 9 inlet~;
#X obj 49 355 outlet~;
#X obj 211 77 +~ 1;
#X obj 272 92 /~ 2;
#X obj 205 49 clip~ -0.9999 0.9999;
#X connect 0 0 4 0;
#X connect 1 0 4 1;
#X connect 2 0 3 0;
#X connect 3 0 12 0;
#X connect 4 0 15 0;
#X connect 5 0 6 0;
#X connect 5 0 7 0;
#X connect 6 0 11 1;
#X connect 7 0 12 1;
#X connect 8 0 9 0;
#X connect 9 0 7 1;
#X connect 10 0 6 1;
#X connect 10 0 8 0;
#X connect 11 0 0 0;
#X connect 12 0 1 0;
#X connect 13 0 11 0;
#X connect 13 0 2 0;
#X connect 14 0 18 0;
#X connect 16 0 17 0;
#X connect 17 0 10 0;
#X connect 18 0 16 0;
