#N canvas 0 34 747 709 12;
#X obj 62 262 /~;
#X obj 81 231 +~ 1;
#X obj 61 180 pow~;
#X obj 62 151 sig~ 2.71828;
#X obj 63 290 *~ 2;
#X obj 64 315 -~ 1;
#X obj 158 152 inlet~;
#X obj 62 349 outlet~;
#X connect 0 0 4 0;
#X connect 1 0 0 1;
#X connect 2 0 0 0;
#X connect 2 0 1 0;
#X connect 3 0 2 0;
#X connect 4 0 5 0;
#X connect 5 0 7 0;
#X connect 6 0 2 1;
