#N canvas 0 0 747 709 12;
#X obj 368 183 samphold~;
#X obj 318 255 *~;
#X obj 378 256 *~;
#X obj 335 313 +~;
#X obj 335 110 +~;
#X obj 397 57 expr~ $v1 > 0.5;
#X obj 329 23 inlet~;
#X obj 407 23 inlet~;
#X obj 339 418 outlet~;
#X obj 490 284 samphold~;
#X obj 395 346 *~;
#X obj 457 349 *~;
#X obj 514 70 inlet;
#X obj 563 127 clip 0 1;
#X obj 577 164 * -1;
#X obj 577 199 + 1;
#X obj 576 54 loadbang;
#X obj 434 101 *~ -1;
#X obj 435 129 +~ 1;
#X obj 275 186 *~ -1;
#X obj 276 214 +~ 1;
#X msg 578 85 0;
#X connect 0 0 2 0;
#X connect 1 0 3 0;
#X connect 2 0 3 0;
#X connect 3 0 10 0;
#X connect 4 0 1 0;
#X connect 4 0 0 0;
#X connect 4 0 9 0;
#X connect 5 0 9 1;
#X connect 5 0 17 0;
#X connect 5 0 19 0;
#X connect 5 0 2 1;
#X connect 6 0 4 0;
#X connect 7 0 5 0;
#X connect 9 0 11 0;
#X connect 10 0 8 0;
#X connect 11 0 8 0;
#X connect 12 0 13 0;
#X connect 13 0 14 0;
#X connect 13 0 11 1;
#X connect 14 0 15 0;
#X connect 15 0 10 1;
#X connect 16 0 21 0;
#X connect 17 0 18 0;
#X connect 18 0 0 1;
#X connect 19 0 20 0;
#X connect 20 0 1 1;
#X connect 21 0 13 0;
