#N canvas 0 0 747 709 12;
#X obj 169 319 cos~;
#X obj 168 351 *~ -1;
#X obj 166 382 +~ 1;
#X obj 166 411 /~ 2;
#X obj 219 397 cos~;
#X obj 221 346 wrap~;
#X obj 166 444 *~;
#X obj 220 370 *~ -1;
#X obj 169 266 clip~ 0 1;
#X obj 170 234 *~;
#X obj 220 321 *~;
#X obj 244 165 inlet~;
#X obj 301 168 inlet~;
#X obj 170 169 inlet~;
#X obj 170 199 phasor~;
#X obj 173 479 outlet~;
#X connect 0 0 1 0;
#X connect 1 0 2 0;
#X connect 2 0 3 0;
#X connect 3 0 6 0;
#X connect 4 0 6 1;
#X connect 5 0 7 0;
#X connect 6 0 15 0;
#X connect 7 0 4 0;
#X connect 8 0 0 0;
#X connect 8 0 10 0;
#X connect 9 0 8 0;
#X connect 10 0 5 0;
#X connect 11 0 9 1;
#X connect 12 0 10 1;
#X connect 13 0 14 0;
#X connect 14 0 9 0;
